<svg width="52" height="52" viewBox="0 0 52 52" fill="none" xmlns="http://www.w3.org/2000/svg">
    <circle cx="26" cy="26" r="26" fill="#F5C176"/>
    <path d="M23.25 16C23.25 16.3682 22.9422 16.6667 22.5625 16.6667C22.1828 16.6667 21.875 16.3682 21.875 16C21.875 14.8954 22.7984 14 23.9375 14H28.0625C29.2016 14 30.125 14.8954 30.125 16C30.125 16.3682 29.8172 16.6667 29.4375 16.6667C29.0578 16.6667 28.75 16.3682 28.75 16C28.75 15.6318 28.4422 15.3333 28.0625 15.3333H23.9375C23.5578 15.3333 23.25 15.6318 23.25 16ZM18.4375 15.3333C18.8172 15.3333 19.125 15.6318 19.125 16C19.125 16.3682 18.8172 16.6667 18.4375 16.6667C17.2984 16.6667 16.375 17.5621 16.375 18.6667V34.6667C16.375 35.7712 17.2984 36.6667 18.4375 36.6667H33.5625C34.7016 36.6667 35.625 35.7712 35.625 34.6667V18.6667C35.625 17.5621 34.7016 16.6667 33.5625 16.6667C33.1828 16.6667 32.875 16.3682 32.875 16C32.875 15.6318 33.1828 15.3333 33.5625 15.3333C35.461 15.3333 37 16.8257 37 18.6667V34.6667C37 36.5076 35.461 38 33.5625 38H18.4375C16.539 38 15 36.5076 15 34.6667V18.6667C15 16.8257 16.539 15.3333 18.4375 15.3333Z" fill="black"/>
    <path d="M29.9689 22.1735C30.2374 21.9132 30.6727 21.9132 30.9412 22.1735C31.2097 22.4339 31.2097 22.856 30.9412 23.1163L24.0662 29.783C23.7977 30.0434 23.3624 30.0434 23.0939 29.783L20.3439 27.1163C20.0755 26.856 20.0755 26.4339 20.3439 26.1735C20.6124 25.9132 21.0477 25.9132 21.3162 26.1735L23.5801 28.3688L29.9689 22.1735Z" fill="black"/>
</svg>
