<svg width="52" height="52" viewBox="0 0 52 52" fill="none" xmlns="http://www.w3.org/2000/svg">
  <circle cx="26" cy="26" r="26" fill="#F1D8D4"/>
  <path d="M23.25 15.9995C23.25 16.3677 22.9422 16.6662 22.5625 16.6662C22.1828 16.6662 21.875 16.3677 21.875 15.9995C21.875 14.8949 22.7984 13.9995 23.9375 13.9995H28.0625C29.2016 13.9995 30.125 14.8949 30.125 15.9995C30.125 16.3677 29.8172 16.6662 29.4375 16.6662C29.0578 16.6662 28.75 16.3677 28.75 15.9995C28.75 15.6313 28.4422 15.3328 28.0625 15.3328H23.9375C23.5578 15.3328 23.25 15.6313 23.25 15.9995ZM18.4375 15.3328C18.8172 15.3328 19.125 15.6313 19.125 15.9995C19.125 16.3677 18.8172 16.6662 18.4375 16.6662C17.2984 16.6662 16.375 17.5616 16.375 18.6662V34.6662C16.375 35.7707 17.2984 36.6662 18.4375 36.6662H33.5625C34.7016 36.6662 35.625 35.7707 35.625 34.6662V18.6662C35.625 17.5616 34.7016 16.6662 33.5625 16.6662C33.1828 16.6662 32.875 16.3677 32.875 15.9995C32.875 15.6313 33.1828 15.3328 33.5625 15.3328C35.461 15.3328 37 16.8252 37 18.6662V34.6662C37 36.5071 35.461 37.9995 33.5625 37.9995H18.4375C16.539 37.9995 15 36.5071 15 34.6662V18.6662C15 16.8252 16.539 15.3328 18.4375 15.3328Z" fill="black"/>
  <path d="M29.967 22.173C30.2355 21.9127 30.6708 21.9127 30.9393 22.173C31.2077 22.4334 31.2077 22.8555 30.9393 23.1159L24.0643 29.7825C23.7958 30.0429 23.3605 30.0429 23.092 29.7825L20.342 27.1159C20.0735 26.8555 20.0735 26.4334 20.342 26.173C20.6105 25.9127 21.0458 25.9127 21.3143 26.173L23.5781 28.3683L29.967 22.173Z" fill="black"/>
</svg>
