<svg width="52" height="52" viewBox="0 0 52 52" fill="none" xmlns="http://www.w3.org/2000/svg">
    <circle cx="26" cy="26" r="26" fill="#CCE1F3"/>
    <path fill-rule="evenodd" clip-rule="evenodd" d="M14 26C14 19.3833 19.3833 14 26 14C32.6167 14 38 19.3833 38 26C38 32.6167 32.6167 38 26 38C19.3833 38 14 32.6167 14 26ZM15 25.9565C15 31.9983 19.9148 36.913 25.9565 36.913C31.9983 36.913 36.913 31.9983 36.913 25.9565C36.913 19.9148 31.9983 15 25.9565 15C19.9148 15 15 19.9148 15 25.9565ZM28.501 32H26.001V23.5C26.001 23.224 25.777 23 25.501 23H23.501C23.225 23 23.001 23.224 23.001 23.5C23.001 23.776 23.225 24 23.501 24H25.001V32H22.501C22.225 32 22.001 32.224 22.001 32.5C22.001 32.776 22.225 33 22.501 33H28.501C28.777 33 29.001 32.776 29.001 32.5C29.001 32.224 28.777 32 28.501 32ZM26 19C26 19.5523 25.5523 20 25 20C24.4477 20 24 19.5523 24 19C24 18.4477 24.4477 18 25 18C25.5523 18 26 18.4477 26 19Z" fill="#3E3832"/>
</svg>
