<svg width="33" height="33" viewBox="0 0 33 33" fill="none" xmlns="http://www.w3.org/2000/svg">
    <path fill-rule="evenodd" clip-rule="evenodd"
          d="M31.3333 27.4348C29.496 27.4348 28 25.8751 28 23.9565V16.3043C28 11.2386 25.0133 6.63339 20.5293 4.72174C20.0293 2.54157 18.1827 1 16 1C13.8507 1 11.968 2.57357 11.468 4.72174C6.98533 6.632 4 11.2372 4 16.3043V23.9565C4 25.8751 2.504 27.4348 0.666667 27.4348C0.298667 27.4348 0 27.7464 0 28.1304C0 28.5144 0.298667 28.8261 0.666667 28.8261H11.4013C11.728 31.1788 13.656 33 16 33C18.344 33 20.272 31.1788 20.5987 28.8261H31.3333C31.7013 28.8261 32 28.5144 32 28.1304C32 27.7464 31.7013 27.4348 31.3333 27.4348ZM15.9997 31.6088C14.3904 31.6088 13.0437 30.4122 12.7344 28.8261H19.265C18.9557 30.4122 17.609 31.6088 15.9997 31.6088ZM3.92871 27.4348C4.79538 26.5499 5.33271 25.3186 5.33271 23.9566V16.3044C5.33271 11.6852 8.12471 7.49742 12.2807 5.88351C12.5074 5.79585 12.67 5.58577 12.7074 5.33672C12.954 3.65742 14.37 2.39133 15.9994 2.39133C17.6514 2.39133 19.034 3.63098 19.286 5.33672C19.322 5.58577 19.486 5.79446 19.7127 5.88351C23.8714 7.49881 26.666 11.6866 26.666 16.3044V23.9566C26.666 25.3186 27.2034 26.5499 28.07 27.4348H3.92871Z"/>
    <path
        d="M20.5293 4.72174L20.042 4.83351L20.0989 5.08179L20.3332 5.18168L20.5293 4.72174ZM11.468 4.72174L11.664 5.18172L11.8975 5.08224L11.955 4.83509L11.468 4.72174ZM11.4013 28.8261L11.8966 28.7573L11.8367 28.3261H11.4013V28.8261ZM20.5987 28.8261V28.3261H20.1633L20.1034 28.7573L20.5987 28.8261ZM12.7344 28.8261V28.3261H12.1274L12.2436 28.9219L12.7344 28.8261ZM19.265 28.8261L19.7558 28.9219L19.872 28.3261H19.265V28.8261ZM3.92871 27.4348L3.5715 27.0849L2.73913 27.9348H3.92871V27.4348ZM12.2807 5.88351L12.1004 5.41716L12.0997 5.41742L12.2807 5.88351ZM12.7074 5.33672L13.2019 5.41085L13.2021 5.40939L12.7074 5.33672ZM19.286 5.33672L19.7809 5.26519L19.7807 5.26365L19.286 5.33672ZM19.7127 5.88351L19.5299 6.34889L19.5317 6.34958L19.7127 5.88351ZM28.07 27.4348V27.9348H29.2596L28.4273 27.0849L28.07 27.4348ZM31.3333 26.9348C29.7919 26.9348 28.5 25.6191 28.5 23.9565H27.5C27.5 26.1311 29.2001 27.9348 31.3333 27.9348V26.9348ZM28.5 23.9565V16.3043H27.5V23.9565H28.5ZM28.5 16.3043C28.5 11.0466 25.4013 6.25524 20.7254 4.26179L20.3332 5.18168C24.6254 7.01155 27.5 11.4306 27.5 16.3043H28.5ZM21.0167 4.60997C20.4679 2.21724 18.4304 0.5 16 0.5V1.5C17.9349 1.5 19.5907 2.86589 20.042 4.83351L21.0167 4.60997ZM16 0.5C13.6022 0.5 11.53 2.24977 10.981 4.60839L11.955 4.83509C12.406 2.89736 14.0992 1.5 16 1.5V0.5ZM11.272 4.26176C6.59725 6.25387 3.5 11.0454 3.5 16.3043H4.5C4.5 11.4291 7.37342 7.01013 11.664 5.18172L11.272 4.26176ZM3.5 16.3043V23.9565H4.5V16.3043H3.5ZM3.5 23.9565C3.5 25.6191 2.20814 26.9348 0.666667 26.9348V27.9348C2.79986 27.9348 4.5 26.1311 4.5 23.9565H3.5ZM0.666667 26.9348C0.00268218 26.9348 -0.5 27.4906 -0.5 28.1304H0.5C0.5 28.0023 0.594651 27.9348 0.666667 27.9348V26.9348ZM-0.5 28.1304C-0.5 28.7703 0.00268218 29.3261 0.666667 29.3261V28.3261C0.594651 28.3261 0.5 28.2586 0.5 28.1304H-0.5ZM0.666667 29.3261H11.4013V28.3261H0.666667V29.3261ZM10.9061 28.8949C11.2638 31.4711 13.3833 33.5 16 33.5V32.5C13.9287 32.5 12.1922 30.8864 11.8966 28.7573L10.9061 28.8949ZM16 33.5C18.6167 33.5 20.7362 31.4711 21.0939 28.8949L20.1034 28.7573C19.8078 30.8864 18.0713 32.5 16 32.5V33.5ZM20.5987 29.3261H31.3333V28.3261H20.5987V29.3261ZM31.3333 29.3261C31.9973 29.3261 32.5 28.7703 32.5 28.1304H31.5C31.5 28.2586 31.4053 28.3261 31.3333 28.3261V29.3261ZM32.5 28.1304C32.5 27.4906 31.9973 26.9348 31.3333 26.9348V27.9348C31.4053 27.9348 31.5 28.0023 31.5 28.1304H32.5ZM15.9997 31.1088C14.649 31.1088 13.4925 30.1013 13.2251 28.7304L12.2436 28.9219C12.5949 30.7232 14.1317 32.1088 15.9997 32.1088V31.1088ZM12.7344 29.3261H19.265V28.3261H12.7344V29.3261ZM18.7743 28.7304C18.5069 30.1013 17.3504 31.1088 15.9997 31.1088V32.1088C17.8677 32.1088 19.4045 30.7232 19.7558 28.9219L18.7743 28.7304ZM4.28592 27.7847C5.24235 26.8081 5.83271 25.4519 5.83271 23.9566H4.83271C4.83271 25.1853 4.3484 26.2917 3.5715 27.0849L4.28592 27.7847ZM5.83271 23.9566V16.3044H4.83271V23.9566H5.83271ZM5.83271 16.3044C5.83271 11.8816 8.50708 7.88531 12.4617 6.3496L12.0997 5.41742C7.74234 7.10953 4.83271 11.4889 4.83271 16.3044H5.83271ZM12.461 6.34985C12.865 6.19363 13.1395 5.82699 13.2019 5.41085L12.2129 5.2626C12.2006 5.34454 12.1497 5.39808 12.1004 5.41716L12.461 6.34985ZM13.2021 5.40939C13.4149 3.96028 14.6332 2.89133 15.9994 2.89133V1.89133C14.1069 1.89133 12.4932 3.35455 12.2127 5.26406L13.2021 5.40939ZM15.9994 2.89133C17.3872 2.89133 18.5732 3.93285 18.7914 5.4098L19.7807 5.26365C19.4949 3.32912 17.9156 1.89133 15.9994 1.89133V2.89133ZM18.7912 5.40826C18.8522 5.83016 19.1314 6.19235 19.5299 6.34888L19.8955 5.41813C19.8407 5.39658 19.7919 5.34137 19.7809 5.26519L18.7912 5.40826ZM19.5317 6.34958C23.4893 7.8868 26.166 11.8834 26.166 16.3044H27.166C27.166 11.4899 24.2535 7.11082 19.8937 5.41743L19.5317 6.34958ZM26.166 16.3044V23.9566H27.166V16.3044H26.166ZM26.166 23.9566C26.166 25.4519 26.7564 26.8081 27.7128 27.7847L28.4273 27.0849C27.6504 26.2917 27.166 25.1853 27.166 23.9566H26.166ZM28.07 26.9348H3.92871V27.9348H28.07V26.9348Z"/>
</svg>
